PathFileType	4	(X/Y/Z)	./resultDataOpenSim/trcMotMarkerGrf/sub06/qtm-05-02.trc
DataRate	CameraRate	NumFrames	NumMarkers	Units	OrigDataRate	OrigDataStartFrame	OrigNumFrames
250.000000	250.000000	8	24	m	250.000000	477	545
Frame#	Time	L.Toe.Tip			R.Toe.Tip			L.Ankle.Lat			R.Ankle.Lat			L.Ankle.Med			R.Ankle.Med			L.Heel			R.Heel			L.Knee.Lat			R.Knee.Lat			L.Knee.Med			R.Knee.Med			L.Thigh.Upper			R.Thigh.Upper			L.ASIS			R.ASIS			V.Sacral			L.Acromium			R.Acromium			C7			L.Elbow			R.Elbow			L.Wrist.Lat			R.Wrist.Lat
		X1	Y1	Z1	X2	Y2	Z2	X3	Y3	Z3	X4	Y4	Z4	X5	Y5	Z5	X6	Y6	Z6	X7	Y7	Z7	X8	Y8	Z8	X9	Y9	Z9	X10	Y10	Z10	X11	Y11	Z11	X12	Y12	Z12	X13	Y13	Z13	X14	Y14	Z14	X15	Y15	Z15	X16	Y16	Z16	X17	Y17	Z17	X18	Y18	Z18	X19	Y19	Z19	X20	Y20	Z20	X21	Y21	Z21	X22	Y22	Z22	X23	Y23	Z23	X24	Y24	Z24

477	1.904	1.6464721	0.033597851	0.012447749	1.1882096	0.087852188	0.16203575	1.5203964	0.067039446	-0.010330014	1.1608587	0.22279633	0.196289	1.5242607	0.082580657	0.075881935	1.2020518	0.21884161	0.11661246	1.4459155	0.041140766	0.03331297	1.1300223	0.26429598	0.1341562	1.587069	0.43658095	-0.031854972	1.4920289	0.4122955	0.23865994	1.5590554	0.43498793	0.08570627	1.4928007	0.39397801	0.10310121	1.4794584	0.81911333	-0.10367205	1.4210868	0.77423061	0.23430801	1.5420069	0.85996338	-0.047785928	1.5176288	0.83764191	0.19696864	1.3413361	0.92002262	0.068111287	1.4574022	1.3279139	-0.11135444	1.4511934	1.3250053	0.25406093	1.3724247	1.3620031	0.068119142	1.3891214	1.0166582	-0.16034364	1.3953792	1.0076177	0.31228849	1.5115296	0.81287286	-0.21962338	1.5571817	0.82691762	0.33032532
478	1.908	1.6464641	0.033600822	0.012440284	1.2052788	0.088188704	0.16364118	1.5203344	0.067141064	-0.010407433	1.1756412	0.2222027	0.19691788	1.5242843	0.082705352	0.075912575	1.2158384	0.21881352	0.11704686	1.4457288	0.041352573	0.03304556	1.1426917	0.262985	0.13430558	1.5882922	0.43652721	-0.031518102	1.503625	0.41525277	0.23903534	1.5597967	0.43507151	0.0859103	1.5043166	0.39647353	0.10344021	1.48395	0.81991456	-0.10372047	1.4275842	0.77631759	0.23455678	1.5471233	0.86122652	-0.048192723	1.5233436	0.83965288	0.19689498	1.3470043	0.92152927	0.067852124	1.4630119	1.3297749	-0.11124492	1.4561848	1.3267176	0.25411894	1.3778521	1.3635449	0.068094496	1.3971182	1.0177057	-0.16077898	1.3988919	1.0096802	0.31182828	1.5228942	0.81543365	-0.21880427	1.5587712	0.82720262	0.33142019
479	1.912	1.6464534	0.033597931	0.01244113	1.2224051	0.088392164	0.16538099	1.5203136	0.067216459	-0.01034012	1.1909079	0.22134849	0.19766708	1.5242974	0.082818069	0.075958883	1.2297218	0.21856435	0.11747482	1.4456133	0.041447826	0.032987771	1.155493	0.26138642	0.13437914	1.5894593	0.43648019	-0.031164451	1.5152022	0.41827682	0.23935977	1.5601926	0.43508637	0.086102538	1.5159415	0.39896676	0.10377269	1.4886012	0.82072836	-0.10378848	1.4339542	0.77842596	0.23478781	1.5521233	0.86250379	-0.048566887	1.5290373	0.84165182	0.19680384	1.352727	0.92301462	0.067685478	1.468605	1.3316388	-0.11111023	1.4612114	1.3283835	0.25417078	1.383287	1.3650791	0.06810704	1.405113	1.018771	-0.16119401	1.4022445	1.0116881	0.31140012	1.5342672	0.81805856	-0.21790338	1.5603389	0.82754766	0.33250637
480	1.916	1.6464349	0.033590957	0.012449877	1.2396046	0.088482367	0.16723629	1.5203253	0.067290908	-0.010175909	1.2059018	0.22038831	0.19829877	1.524284	0.082916347	0.076018903	1.243697	0.21810569	0.11790597	1.4455862	0.041500084	0.0331884	1.1684099	0.2594912	0.13435082	1.5905664	0.43643724	-0.030800158	1.5266537	0.42135812	0.23968462	1.5604893	0.43506153	0.086336391	1.5278807	0.40148989	0.10409663	1.4933935	0.82154954	-0.10386868	1.4403073	0.78054161	0.23500819	1.5571922	0.86380546	-0.048927756	1.5346924	0.8436445	0.19669419	1.358444	0.92451304	0.067624324	1.4741916	1.333513	-0.11095272	1.4662865	1.3299991	0.25421427	1.3887254	1.3665927	0.068149138	1.4131081	1.0198543	-0.16158515	1.4058916	1.0136363	0.31106743	1.5456889	0.82075673	-0.21690153	1.5618753	0.82795494	0.33359431
481	1.92	1.6464068	0.033583173	0.01246464	1.2568807	0.088471453	0.16917641	1.5203424	0.067381019	-0.0099893154	1.2201996	0.21936913	0.1986528	1.52424	0.083001559	0.076092006	1.2578042	0.21742679	0.11839253	1.4456132	0.041575656	0.033529004	1.181455	0.25729867	0.13416825	1.5916291	0.43639574	-0.030433795	1.5379092	0.42448681	0.24004108	1.5609976	0.43503001	0.086656381	1.5400807	0.40410948	0.10442134	1.4982242	0.82237081	-0.10392812	1.4467114	0.78264301	0.23524368	1.5623564	0.86512498	-0.049277767	1.540313	0.84563799	0.19656508	1.3641353	0.92600097	0.06762936	1.4797788	1.3353825	-0.11077432	1.4714177	1.3315665	0.25425641	1.3941643	1.3680707	0.068212618	1.4211014	1.0209556	-0.1619657	1.4100607	1.0155432	0.31085836	1.5572129	0.82353258	-0.21579492	1.5633828	0.82842349	0.33469099
482	1.924	1.6463726	0.033577568	0.012482167	1.2742552	0.088371032	0.17116214	1.5203452	0.067488533	-0.0098267465	1.2339767	0.21822247	0.19878091	1.5242	0.08307911	0.076173789	1.2721069	0.2165075	0.11901001	1.4456493	0.041684921	0.033850296	1.1946247	0.25480948	0.13382957	1.5926861	0.43635129	-0.030075745	1.5489854	0.42765623	0.24041674	1.561775	0.43500261	0.087037504	1.5523422	0.406884	0.10474409	1.5030597	0.82317895	-0.1039486	1.4530796	0.78472671	0.23549195	1.567563	0.86644739	-0.049613819	1.5459206	0.84763494	0.19641692	1.369826	0.92741556	0.06763614	1.4853661	1.3372132	-0.11057754	1.476607	1.3331007	0.25431775	1.3996001	1.3695059	0.068287184	1.4290876	1.0220693	-0.16235261	1.4145864	1.0174609	0.31072887	1.5687881	0.82638207	-0.21460285	1.5648828	0.82894326	0.33579151
483	1.928	1.6463389	0.033574857	0.012498654	1.2917746	0.08819608	0.17316717	1.5203317	0.067608457	-0.0096971146	1.2476549	0.21687953	0.19885085	1.5242186	0.083158311	0.076256237	1.2866163	0.21534217	0.11976899	1.4456798	0.041813232	0.03408948	1.2078322	0.25200424	0.13351525	1.5937711	0.4362992	-0.029732783	1.5599201	0.43085379	0.24077935	1.5626531	0.4349791	0.087414905	1.5645919	0.40981732	0.10505099	1.5079354	0.82395065	-0.10392975	1.4591618	0.78681897	0.23570875	1.5727783	0.86775878	-0.049932419	1.5515384	0.84963282	0.19624926	1.3755292	0.92873572	0.067603938	1.4909482	1.3389844	-0.11036937	1.4818552	1.3346193	0.25441818	1.4050271	1.3708911	0.068361202	1.4370647	1.0231842	-0.16275043	1.4190842	1.0194404	0.31059765	1.5802575	0.82929691	-0.21335963	1.5664012	0.82950098	0.33688135
484	1.932	1.6463125	0.033573518	0.012511074	1.3094755	0.087964703	0.1751804	1.5203106	0.067736592	-0.0095921023	1.2615224	0.21532591	0.198979	1.5243018	0.083244562	0.076338915	1.3012041	0.21396331	0.12049482	1.4457129	0.041953821	0.034267737	1.220901	0.24883519	0.13359367	1.5948622	0.43623675	-0.029407404	1.5707326	0.43405651	0.24110713	1.5635185	0.43497904	0.087758276	1.5768287	0.41287729	0.10534443	1.5128715	0.82467724	-0.10388167	1.4647556	0.78893065	0.23586451	1.5779978	0.86905076	-0.050230073	1.5571903	0.85162712	0.19605793	1.3812127	0.92999971	0.067532554	1.4965213	1.3407006	-0.11015899	1.487155	1.3361119	0.25454799	1.4104402	1.3722226	0.068426954	1.4450359	1.024292	-0.16315371	1.4231256	1.0214714	0.31039193	1.5915344	0.83226427	-0.21208471	1.567952	0.83008552	0.33794749
